<svg width="179" height="214" viewBox="0 0 179 214" fill="none" xmlns="http://www.w3.org/2000/svg">
<path d="M104.632 70.152H92.68L90.904 75H84.184L98.344 40.968H98.824L113.032 75H106.504L104.632 70.152ZM102.856 65.496L99.352 56.376L98.536 53.688L97.768 56.376L94.408 65.496H102.856ZM129.514 75L120.922 62.904V75H114.826V41.544H124.138C132.074 41.544 136.042 45.096 136.042 52.2C136.042 53.784 135.786 55.344 135.274 56.88C134.762 58.4 133.922 59.752 132.754 60.936C131.602 62.12 130.122 62.936 128.314 63.384L136.954 75H129.514ZM123.466 59.88C124.826 59.88 125.986 59.56 126.946 58.92C127.922 58.264 128.658 57.4 129.154 56.328C129.65 55.24 129.898 54.056 129.898 52.776C129.898 50.568 129.386 48.944 128.362 47.904C127.354 46.864 125.674 46.344 123.322 46.344H120.922V59.88H123.466ZM159.57 46.968H151.842V75H145.65V46.968H137.922V41.544H159.57V46.968Z" fill="#F2F2F2"/>
<path d="M82.9615 126.544C87.8575 126.544 91.6095 127.92 94.2175 130.672C96.8255 133.408 98.1295 137.472 98.1295 142.864C98.1295 146.368 97.5375 149.408 96.3535 151.984C95.1855 154.544 93.4575 156.52 91.1695 157.912C88.8975 159.304 86.1455 160 82.9135 160H74.3215V126.544H82.9615ZM82.7695 154.72C84.9775 154.72 86.7615 154.176 88.1215 153.088C89.4815 152 90.4495 150.584 91.0255 148.84C91.6015 147.08 91.8895 145.136 91.8895 143.008C91.8895 139.616 91.1695 136.824 89.7295 134.632C88.3055 132.44 85.9855 131.344 82.7695 131.344H80.5135V154.72H82.7695ZM117.547 155.152H105.595L103.819 160H97.0993L111.259 125.968H111.739L125.947 160H119.419L117.547 155.152ZM115.771 150.496L112.267 141.376L111.451 138.688L110.683 141.376L107.323 150.496H115.771ZM142.43 160L133.838 147.904V160H127.742V126.544H137.054C144.99 126.544 148.958 130.096 148.958 137.2C148.958 138.784 148.702 140.344 148.19 141.88C147.678 143.4 146.838 144.752 145.67 145.936C144.518 147.12 143.038 147.936 141.23 148.384L149.87 160H142.43ZM136.382 144.88C137.742 144.88 138.902 144.56 139.862 143.92C140.838 143.264 141.574 142.4 142.07 141.328C142.566 140.24 142.814 139.056 142.814 137.776C142.814 135.568 142.302 133.944 141.278 132.904C140.27 131.864 138.59 131.344 136.238 131.344H133.838V144.88H136.382ZM170.901 160L160.101 143.944V160H154.005V126.544H160.101V143.2L170.757 126.544H177.813L166.413 143.152L178.581 160H170.901Z" fill="#F2F2F2"/>
<path d="M96.352 107.144C95.36 107.144 94.864 106.6 94.864 105.512C94.864 103.88 95.664 101.88 97.264 99.512C98.832 97.176 100.384 95.736 101.92 95.192C102.208 95.096 102.48 95.016 102.736 94.952C102.992 94.888 103.248 94.856 103.504 94.856C104.656 94.856 105.488 95.256 106 96.056C106.096 96.184 106.144 96.296 106.144 96.392C106.144 96.456 106.032 96.504 105.808 96.536C105.616 96.568 105.456 96.68 105.328 96.872C104.56 98.12 104.176 99.992 104.176 102.488C104.176 104.792 104.672 105.944 105.664 105.944C106.336 105.944 107.312 105.24 108.592 103.832C108.784 103.64 109.056 103.304 109.408 102.824C109.76 102.344 110.112 101.864 110.464 101.384C110.816 100.872 111.056 100.536 111.184 100.376C111.28 100.28 111.36 100.232 111.424 100.232C111.552 100.232 111.616 100.344 111.616 100.568C111.616 100.728 111.52 100.952 111.328 101.24C110.624 102.36 109.824 103.448 108.928 104.504C108.032 105.56 107.264 106.248 106.624 106.568C106.048 106.856 105.472 107 104.896 107C102.944 107 101.968 105.624 101.968 102.872C101.968 102.648 101.968 102.424 101.968 102.2C102 101.944 102.032 101.688 102.064 101.432C99.888 105.24 97.984 107.144 96.352 107.144ZM97.168 105.704C97.52 105.704 97.936 105.512 98.416 105.128C98.896 104.712 99.392 104.168 99.904 103.496C100.672 102.472 101.392 101.384 102.064 100.232C102.736 99.08 103.328 97.832 103.84 96.488C103.744 96.456 103.6 96.44 103.408 96.44C102.096 96.44 100.768 97.256 99.424 98.888C97.472 101.224 96.496 103.16 96.496 104.696C96.496 105.368 96.72 105.704 97.168 105.704ZM107.873 124.088C106.689 124.088 105.905 123.608 105.521 122.648C105.137 121.72 104.945 120.616 104.945 119.336C104.945 118.216 105.153 116.856 105.569 115.256C105.953 113.656 106.465 111.944 107.105 110.12C107.713 108.328 108.385 106.552 109.121 104.792C109.889 103 110.625 101.368 111.329 99.896C112.129 98.232 112.817 96.824 113.393 95.672C114.001 94.488 114.545 93.448 115.025 92.552C115.537 91.656 116.017 90.792 116.465 89.96C116.945 89.096 117.457 88.152 118.001 87.128C118.641 85.976 119.201 85 119.681 84.2C120.193 83.368 120.561 82.824 120.785 82.568C120.945 82.408 121.185 82.232 121.505 82.04C121.857 81.816 122.177 81.704 122.465 81.704C122.913 81.704 123.137 81.976 123.137 82.52C123.137 82.744 122.929 83.224 122.513 83.96C122.097 84.696 121.553 85.576 120.881 86.6C120.209 87.592 119.505 88.632 118.769 89.72C117.841 91.096 116.881 92.584 115.889 94.184C114.929 95.784 113.985 97.432 113.057 99.128C113.313 98.936 113.553 98.84 113.777 98.84C114.865 98.84 115.745 100.568 116.417 104.024C116.769 104.376 117.137 104.584 117.521 104.648C117.905 104.712 118.241 104.744 118.529 104.744C119.361 104.744 120.273 104.248 121.265 103.256C121.777 102.744 122.209 102.232 122.561 101.72C122.913 101.208 123.185 100.84 123.377 100.616C123.473 100.52 123.569 100.472 123.665 100.472C123.889 100.472 124.001 100.568 124.001 100.76C124.001 100.92 123.889 101.16 123.665 101.48C122.801 102.696 121.953 103.688 121.121 104.456C120.289 105.192 119.441 105.576 118.577 105.608C118.097 105.608 117.649 105.56 117.233 105.464C116.849 105.336 116.593 105.192 116.465 105.032C116.753 106.888 116.769 108.68 116.513 110.408C116.289 112.168 115.841 113.976 115.169 115.832C114.657 117.208 114.049 118.52 113.345 119.768C112.673 121.048 111.889 122.088 110.993 122.888C110.097 123.688 109.057 124.088 107.873 124.088ZM108.545 122.792C109.377 122.792 110.145 122.408 110.849 121.64C111.585 120.872 112.241 119.944 112.817 118.856C113.393 117.768 113.873 116.728 114.257 115.736C114.961 113.912 115.409 112.04 115.601 110.12C115.825 108.232 115.745 106.392 115.361 104.6C114.625 104.056 113.969 103.368 113.393 102.536C112.849 101.672 112.577 100.84 112.577 100.04C110.689 104.296 109.201 108.12 108.113 111.512C107.025 114.904 106.481 117.72 106.481 119.96C106.481 121.048 106.705 121.784 107.153 122.168C107.569 122.584 108.033 122.792 108.545 122.792ZM125.528 107.24C124.536 107.24 123.832 106.904 123.416 106.232C123 105.56 122.792 104.728 122.792 103.736C122.792 102.52 123 101.256 123.416 99.944C123.832 98.6 124.28 97.496 124.76 96.632H124.472C123.352 96.632 122.6 96.552 122.216 96.392C121.864 96.2 121.688 95.896 121.688 95.48C121.688 95.256 121.864 95.144 122.216 95.144L125.288 95.336C126.088 93.736 126.888 92.248 127.688 90.872C128.52 89.496 129.208 88.536 129.752 87.992C130.2 87.544 130.824 87.32 131.624 87.32C132.328 87.32 132.68 87.464 132.68 87.752C132.68 87.816 132.664 87.864 132.632 87.896L130.568 90.344C130.088 90.92 129.56 91.656 128.984 92.552C128.408 93.448 127.832 94.408 127.256 95.432C127.608 95.464 127.928 95.48 128.216 95.48C128.536 95.48 128.808 95.48 129.032 95.48C129.16 95.48 129.304 95.48 129.464 95.48C129.624 95.448 129.816 95.432 130.04 95.432H131.048C131.432 95.432 131.624 95.528 131.624 95.72C131.624 96.2 129.976 96.488 126.68 96.584C126.328 97.256 125.976 98.04 125.624 98.936C125.272 99.8 124.984 100.664 124.76 101.528C124.568 102.392 124.472 103.176 124.472 103.88C124.472 105.352 125.096 106.088 126.344 106.088C127.368 106.088 128.568 105.464 129.944 104.216C130.488 103.704 130.952 103.192 131.336 102.68C131.752 102.136 132.152 101.592 132.536 101.048C132.728 100.76 132.904 100.616 133.064 100.616C133.224 100.616 133.304 100.712 133.304 100.904C133.304 101.032 133.272 101.16 133.208 101.288C133.176 101.384 133.144 101.464 133.112 101.528C132.696 102.072 132.232 102.664 131.72 103.304C131.24 103.944 130.664 104.568 129.992 105.176C128.424 106.552 126.936 107.24 125.528 107.24ZM135.329 107.288C134.273 107.288 133.345 106.984 132.545 106.376C131.745 105.768 131.345 104.744 131.345 103.304C131.345 102.44 131.537 101.512 131.921 100.52C132.305 99.496 132.817 98.536 133.457 97.64C134.129 96.744 134.865 96.008 135.665 95.432C136.465 94.856 137.281 94.568 138.113 94.568C138.433 94.568 138.705 94.68 138.929 94.904C139.185 95.128 139.313 95.464 139.313 95.912C139.313 96.904 138.561 98.104 137.057 99.512C136.449 100.088 135.809 100.6 135.137 101.048C134.497 101.496 133.905 101.816 133.361 102.008C133.233 102.424 133.169 102.904 133.169 103.448C133.169 104.184 133.345 104.856 133.697 105.464C134.049 106.072 134.609 106.376 135.377 106.376C136.337 106.376 137.217 106.104 138.017 105.56C138.817 105.016 139.553 104.36 140.225 103.592C140.897 102.792 141.489 102.056 142.001 101.384C142.225 101.064 142.449 100.904 142.673 100.904C142.801 100.904 142.865 100.968 142.865 101.096C142.865 101.16 142.849 101.24 142.817 101.336C142.785 101.4 142.753 101.464 142.721 101.528C142.177 102.296 141.553 103.128 140.849 104.024C140.145 104.92 139.345 105.688 138.449 106.328C137.553 106.968 136.513 107.288 135.329 107.288ZM133.697 101.048C134.529 100.696 135.393 100.072 136.289 99.176C137.345 98.152 137.873 97.256 137.873 96.488C137.873 96.104 137.681 95.912 137.297 95.912C136.785 95.912 136.081 96.648 135.185 98.12C134.385 99.336 133.889 100.312 133.697 101.048ZM149.307 107.768C148.219 107.768 147.451 107.48 147.003 106.904C146.587 106.328 146.379 105.592 146.379 104.696C146.379 103.96 146.491 103.192 146.715 102.392C146.971 101.56 147.275 100.792 147.627 100.088C147.979 99.384 148.283 98.824 148.539 98.408C148.443 98.44 148.347 98.472 148.251 98.504C148.155 98.504 148.043 98.504 147.915 98.504C147.467 98.504 146.971 98.344 146.427 98.024C145.851 97.64 145.563 97.24 145.563 96.824C145.371 97.272 145.099 97.784 144.747 98.36C144.427 98.936 144.043 99.56 143.595 100.232C142.411 102.088 141.627 103.016 141.243 103.016C141.115 103.016 141.051 102.952 141.051 102.824C141.051 102.696 141.147 102.504 141.339 102.248C141.947 101.416 142.555 100.456 143.163 99.368C143.803 98.28 144.443 97.064 145.083 95.72C145.051 95.56 145.019 95.4 144.987 95.24C144.987 95.08 144.987 94.888 144.987 94.664C144.987 93.928 145.131 93.08 145.419 92.12C145.771 90.904 146.203 90.296 146.715 90.296C147.035 90.296 147.339 90.584 147.627 91.16C147.723 91.384 147.803 91.608 147.867 91.832C147.931 92.024 147.963 92.232 147.963 92.456C147.963 93.224 147.307 94.392 145.995 95.96C146.283 96.952 146.843 97.448 147.675 97.448C148.283 97.448 148.843 97.144 149.355 96.536C149.899 95.896 150.283 95.576 150.507 95.576C150.795 95.576 151.051 95.688 151.275 95.912C151.499 96.136 151.611 96.424 151.611 96.776C151.611 96.744 151.403 97.032 150.987 97.64C150.603 98.248 150.155 99.096 149.643 100.184C149.131 101.272 148.763 102.2 148.539 102.968C148.347 103.736 148.251 104.424 148.251 105.032C148.251 106.152 148.779 106.712 149.835 106.712C150.859 106.712 152.155 105.928 153.723 104.36C154.235 103.816 154.827 103.128 155.499 102.296C156.331 101.272 156.747 100.76 156.747 100.76C156.875 100.76 156.939 100.856 156.939 101.048C156.939 101.304 156.843 101.576 156.651 101.864C156.203 102.568 155.707 103.272 155.163 103.976C154.651 104.648 154.171 105.192 153.723 105.608C152.251 107.048 150.779 107.768 149.307 107.768Z" fill="#F2F2F2"/>
<path fill-rule="evenodd" clip-rule="evenodd" d="M111.535 213.097C49.9357 213.097 4.27961e-05 165.177 4.27961e-05 106.064C4.27961e-05 46.9511 61.1923 3.16034 122.791 3.16034C137.017 3.16034 150.021 5.49599 161.608 9.81661C157.158 9.24288 152.617 8.94665 148.004 8.94665C92.1115 8.94665 46.802 52.4275 46.802 106.064C46.802 159.7 92.3041 205.422 148.196 205.422C149.954 205.422 151.7 205.377 153.435 205.287C140.499 210.323 126.354 213.097 111.535 213.097Z" fill="#888888"/>
<path fill-rule="evenodd" clip-rule="evenodd" d="M113.382 214C50.7628 214 5.40018e-05 166.094 5.40018e-05 107C5.40018e-05 47.9055 50.7628 0 113.382 0C131.407 0 148.45 3.96944 163.582 11.0326C158.296 10.2972 152.882 9.91588 147.371 9.91588C88.5197 9.91588 40.8114 53.3968 40.8114 107.033C40.8114 160.67 88.5197 204.15 147.371 204.15C152.812 204.15 158.158 203.779 163.38 203.062C148.298 210.066 131.327 214 113.382 214Z" fill="#D9D9D9"/>
</svg>
